<svg width="200" height="60" xmlns="http://www.w3.org/2000/svg" xmlns:svg="http://www.w3.org/2000/svg" preserveAspectRatio="xMidYMid meet">
  <g>
    <g stroke="null" id="svg_1">
      <path stroke="null" d="m45.51145,0.06903c-0.19578,0.03138 -1.49282,0.16948 -2.87552,0.30757c-5.55526,0.56493 -8.05146,0.82857 -8.60821,0.89762l-0.58122,0.07532l0,2.57359c0.00612,2.98787 0.10401,4.43787 0.46498,6.90475c1.30928,8.9134 5.37172,15.92487 11.80187,20.33763c3.57299,2.45432 7.53142,4.03614 12.46875,4.98398c0.55063,0.10671 1.00949,0.19459 1.02173,0.19459c0.07342,0 0.93607,-2.63636 2.17805,-6.65367c0.56899,-1.84545 1.28481,-4.09891 1.59683,-5.00908c0.30591,-0.9039 0.54451,-1.65714 0.53228,-1.6697c-0.01224,-0.01256 -0.45274,-0.21342 -0.97278,-0.45195c-2.23312,-1.0106 -4.78438,-2.40411 -6.44851,-3.52142c-1.71308,-1.1487 -2.89388,-2.12792 -4.16645,-3.43982c-2.52679,-2.60497 -4.03185,-5.53008 -4.76602,-9.27747c-0.28755,-1.46883 -0.43439,-2.91883 -0.50169,-5.08441l-0.04283,-1.23658l-0.37321,0.00628c-0.20802,0.00628 -0.53228,0.03138 -0.72806,0.06277l0.00001,0z" id="svg_2" fill="#449E62"/>
      <path stroke="null" d="m68.65634,24.08501c-1.8905,4.55086 -3.61582,8.64977 -3.82995,9.10799c-0.42827,0.929 -0.81371,1.55671 -1.17468,1.9145c-0.24472,0.24481 -0.83818,0.50217 -1.33987,0.58377l-0.26308,0.03766l0,0.30757l0,0.30757l3.09578,0l3.08965,0l-0.01835,-0.3013l-0.01835,-0.29502l-0.39768,-0.04394c-0.88101,-0.08788 -1.35211,-0.28247 -1.63354,-0.65909c-0.14072,-0.18831 -0.17131,-0.28874 -0.16519,-0.57749c0,-0.47078 0.18966,-1.0106 1.05232,-3.08203l0.72194,-1.72619l3.75653,0l3.75653,0l0.72806,1.78268c0.82595,2.04632 1.04008,2.71796 1.00337,3.16363c-0.05506,0.64026 -0.53839,0.9855 -1.53565,1.09848l-0.37321,0.04394l-0.01835,0.29502l-0.01835,0.3013l3.86054,0l3.86054,0l-0.01835,-0.3013l-0.01835,-0.29502l-0.31202,-0.03766c-0.98502,-0.12554 -1.61519,-0.57749 -2.19641,-1.57554c-0.37321,-0.64026 -0.76476,-1.57554 -4.56412,-10.89067l-3.02236,-7.42575l-0.28143,0l-0.27532,0l-3.45063,8.26687l-0.00001,0zm4.55801,0.40173c0.87489,2.14047 1.60295,3.91688 1.60907,3.94826c0.01224,0.03766 -1.20527,0.06277 -3.26096,0.06277c-2.70421,0 -3.27932,-0.01256 -3.26096,-0.0816c0.03671,-0.1632 3.26096,-7.8212 3.29155,-7.82748c0.01835,0 0.74641,1.7513 1.62131,3.89804l0,0z" id="svg_3"/>
      <path stroke="null" d="m93.22675,15.88091c-2.44113,0.28874 -4.12974,1.11731 -5.84893,2.88744c-1.64578,1.68225 -2.64303,3.6093 -3.10189,5.99458c-0.15295,0.81602 -0.15295,2.89999 0.00612,3.76623c0.5751,3.16991 2.56961,5.86904 5.31666,7.18722c1.00949,0.48333 2.28818,0.84112 3.6097,1.00433c0.69135,0.08788 2.72257,0.08788 3.46898,0c1.59071,-0.18203 2.88776,-0.56493 4.44788,-1.31818l0.67911,-0.32641l0.02447,-3.68463c0.03059,-4.21818 0.04283,-4.34999 0.47721,-4.85844c0.29979,-0.34524 0.62405,-0.48333 1.24198,-0.52727l0.4711,-0.03766l0,-0.3013l0,-0.30757l-3.79324,0l-3.79324,0l0,0.31385l0,0.31385l0.25084,0c0.42215,0 1.1135,0.13182 1.37046,0.26363c0.48945,0.25108 0.70358,0.57121 0.81983,1.21147c0.04283,0.23853 0.0673,1.58182 0.0673,3.77878l0,3.40844l-0.14072,0.09416c-0.27532,0.18203 -1.35823,0.60887 -1.92109,0.75952c-0.73418,0.18831 -1.76202,0.27619 -2.4962,0.20087c-1.45,-0.13182 -3.04683,-0.9039 -4.09303,-1.96471c-1.33375,-1.35584 -2.24536,-3.32684 -2.64915,-5.71211c-0.12848,-0.79091 -0.14684,-3.15108 -0.03059,-3.86038c0.38544,-2.2974 1.19915,-4.11146 2.39831,-5.34177c1.2481,-1.28052 2.74092,-1.87684 4.71708,-1.87684c1.63966,0 2.83881,0.37662 3.95231,1.23658c1.06456,0.82229 1.86603,2.09026 2.48396,3.92315c0.03059,0.08788 0.10401,0.11299 0.31814,0.11299c0.15295,0 0.27532,-0.00628 0.27532,-0.01883c0,-0.00628 -0.11013,-1.38095 -0.24472,-3.05692c-0.1346,-1.67597 -0.24472,-3.10714 -0.24472,-3.18874c0,-0.12554 -0.03059,-0.1381 -0.29979,-0.1381l-0.29979,0l-0.03671,0.29502c-0.09177,0.66537 -0.29367,0.96039 -0.66076,0.96039c-0.09789,0 -0.78924,-0.20714 -1.53565,-0.4645c-1.77426,-0.61515 -2.35548,-0.73442 -3.68312,-0.75952c-0.56899,-0.01256 -1.25422,0 -1.52342,0.03138l0.00001,0.00001z" id="svg_4"/>
      <path stroke="null" d="m141.82918,15.88091c-2.26371,0.29502 -4.03797,1.18636 -5.66539,2.84978c-1.98227,2.04004 -2.89999,4.42532 -2.89999,7.57012c0,2.41666 0.5751,4.50692 1.71919,6.28332c0.49557,0.7658 1.77426,2.08398 2.53291,2.61125c1.38881,0.96039 2.88164,1.48138 4.54577,1.57554c2.94282,0.16948 5.19429,-0.65281 7.20716,-2.64264c1.45612,-1.43744 2.33713,-2.96904 2.80822,-4.90238c0.28143,-1.14242 0.36097,-1.98983 0.31814,-3.43982c-0.04283,-1.78268 -0.29979,-2.95021 -0.96055,-4.36255c-1.09514,-2.36017 -3.23649,-4.34371 -5.54303,-5.1409c-0.80759,-0.27619 -1.56624,-0.40173 -2.62468,-0.43311c-0.53839,-0.01256 -1.18692,0 -1.43776,0.03138l0,0.00001zm2.52679,1.28052c2.57573,0.67164 4.14197,3.08831 4.60083,7.10562c0.12848,1.09848 0.12848,3.45237 0,4.58225c-0.12236,1.05454 -0.42827,2.31623 -0.74641,3.06948c-1.09514,2.5987 -3.51181,4.06752 -6.13648,3.74112c-1.18692,-0.15065 -2.09852,-0.6026 -2.9367,-1.45c-1.24198,-1.24913 -1.99451,-2.98787 -2.36772,-5.46103c-0.15907,-1.04199 -0.15907,-4.05497 0,-5.08441c0.34262,-2.25346 1.02173,-3.86666 2.11687,-5.04675c0.86877,-0.92273 1.76202,-1.3935 3.05295,-1.60692c0.58734,-0.09416 1.74367,-0.02511 2.41666,0.15065z" id="svg_5"/>
      <path stroke="null" d="m170.9209,15.8558c-0.59346,0.06905 -1.63354,0.3013 -2.22088,0.50217c-1.41329,0.48961 -2.61856,1.25541 -3.68312,2.34762c-0.83207,0.85368 -1.25422,1.45 -1.79873,2.51082c-0.90548,1.78896 -1.3154,3.70973 -1.24198,5.86904c0.06118,1.73246 0.41603,3.21385 1.1135,4.61363c0.91772,1.83917 2.4289,3.3896 4.08079,4.19307c1.3154,0.63398 2.55738,0.89762 4.30105,0.89762c3.09578,0 5.34725,-1.12987 7.13986,-3.58419c0.4711,-0.64654 0.9789,-1.50021 0.94831,-1.59437c-0.01835,-0.03766 -0.12848,-0.12554 -0.25084,-0.19459c-0.22025,-0.11926 -0.23249,-0.11926 -0.28755,-0.01256c-0.12236,0.21342 -1.03396,1.35584 -1.44388,1.80151c-1.23586,1.34957 -2.57573,2.03376 -4.31328,2.20952c-2.0924,0.20714 -4.19704,-0.48961 -5.59197,-1.85173c-1.12574,-1.09221 -1.81097,-2.49826 -2.17805,-4.48181c-0.12848,-0.66537 -0.14072,-0.929 -0.14072,-2.56104c0,-2.23463 0.11624,-3.12597 0.58734,-4.61363c0.65464,-2.04632 1.69472,-3.42727 3.17531,-4.19934c1.10738,-0.58377 2.14746,-0.80974 3.41392,-0.74069c2.84493,0.15065 4.83944,1.86428 5.88564,5.04675l0.21414,0.64654l0.26308,0l0.2692,0l-0.04283,-0.45823c-0.06118,-0.74697 -0.39768,-5.95691 -0.39768,-6.18289c0,-0.20087 0,-0.20087 -0.30591,-0.20087c-0.25696,0 -0.30591,0.01883 -0.30591,0.11299c0,0.21342 -0.37321,0.89134 -0.58122,1.05454c-0.37933,0.29502 -0.58122,0.27619 -1.50506,-0.15065c-1.59071,-0.72814 -2.46561,-0.94784 -3.90949,-0.97922c-0.52004,-0.01256 -1.05844,-0.01256 -1.19304,0l-0.00001,0z" id="svg_6" fill="#449e62"/>
      <path stroke="null" d="m105.1204,16.56511l0,0.3013l0.66076,0.03138c0.83207,0.04394 1.26645,0.20087 1.67025,0.61515c0.4711,0.48333 0.45274,0.12554 0.45274,8.7251c0,7.91536 -0.00612,8.1225 -0.27532,8.6686c-0.15295,0.3013 -0.53228,0.59004 -0.93607,0.71558c-0.16519,0.05022 -0.58734,0.11299 -0.93607,0.13182l-0.63628,0.04394l0,0.26991l0,0.27619l4.22151,0l4.22151,0l0,-0.28247l0,-0.28247l-0.31814,0c-1.26033,-0.00628 -2.16582,-0.4645 -2.38607,-1.20519c-0.06118,-0.21342 -0.07953,-1.85173 -0.07953,-8.14761c0,-7.46341 0.00612,-7.9028 0.11013,-8.29825c0.14072,-0.50844 0.39768,-0.80974 0.89325,-1.04199c0.27532,-0.13182 0.45274,-0.1632 1.05844,-0.18831l0.72194,-0.03138l0,-0.3013l0,-0.30757l-4.22151,0l-4.22151,0l0,0.30757l-0.00001,0z" id="svg_7"/>
      <path stroke="null" d="m114.78704,16.56511l0,0.3013l0.72194,0.03138c1.3827,0.0565 1.87215,0.48333 2.0251,1.74502c0.07953,0.64026 0.08566,14.61924 0.01224,15.28461c-0.08566,0.71558 -0.17131,0.96039 -0.45886,1.25541c-0.36709,0.37035 -0.78924,0.52099 -1.62742,0.57121l-0.67299,0.04394l0,0.27619l0,0.26991l7.59872,-0.01256l7.59872,-0.01883l0.82595,-2.68657c0.50169,-1.63203 0.80147,-2.70541 0.76476,-2.73679c-0.03059,-0.03138 -0.14072,-0.07532 -0.25084,-0.10044l-0.19578,-0.03766l-0.39156,0.83485c-0.50781,1.09221 -0.85654,1.62576 -1.44388,2.20324c-0.6057,0.59632 -1.25422,0.94156 -2.05569,1.08593c-0.69747,0.13182 -4.59472,0.20087 -5.46349,0.09416c-0.93607,-0.10671 -1.16856,-0.35151 -1.29704,-1.33073c-0.09789,-0.75324 -0.04895,-14.83894 0.04895,-15.27833c0.10401,-0.42684 0.32426,-0.74697 0.70358,-1.00433c0.41603,-0.28247 0.88713,-0.40173 1.77426,-0.45195l0.71582,-0.03766l0,-0.30757l0,-0.3013l-4.46624,0l-4.46624,0l0,0.30757l0,0.00001z" id="svg_8"/>
      <path stroke="null" d="m183.06539,16.36425c0,0.06277 -0.08566,1.11731 -0.18354,2.34134c-0.23861,2.91883 -0.25084,2.63636 0.11624,2.63636l0.29979,0l0.03671,-0.3013c0.08566,-0.59004 0.4038,-1.72619 0.59346,-2.09026c0.34873,-0.67164 1.03396,-1.15497 1.85991,-1.31191c0.23249,-0.05022 1.70084,-0.08788 4.00126,-0.10671c3.03459,-0.02511 3.62193,-0.01883 3.58522,0.0565c-0.03059,0.04394 -2.83881,4.1554 -6.25273,9.1331c-6.04471,8.81925 -6.19767,9.0515 -6.19767,9.33397l0,0.28874l7.97804,0l7.97804,0l0.03671,-0.17576c0.2019,-0.9855 0.83207,-4.84588 0.81983,-4.99653c-0.01835,-0.16948 -0.04895,-0.20087 -0.23861,-0.23225l-0.22025,-0.03138l-0.11013,0.34524c-0.54451,1.77013 -1.3154,2.93138 -2.25147,3.3896c-0.8443,0.41429 -0.72194,0.40173 -5.65315,0.42684l-4.47847,0.02511l6.36286,-9.34025c3.50569,-5.13462 6.38121,-9.37163 6.39957,-9.41557c0.02447,-0.06905 -1.33375,-0.0816 -7.22551,-0.0816c-6.87066,0 -7.2561,0.00628 -7.2561,0.10671l0,0z" id="svg_9" fill="#449e62"/>
      <path stroke="null" d="m39.53403,32.95448c-2.55738,0.22597 -5.40843,0.77836 -7.92298,1.53788c-1.57848,0.47705 -4.42953,1.50649 -4.57025,1.65086c-0.02447,0.02511 -0.01835,0.14437 0.01224,0.26363c0.16519,0.59004 0.74029,3.21385 1.40105,6.3712c0.67911,3.25779 1.06456,5.00908 1.32763,6.08246c0.12236,0.50217 -0.04283,0.48333 1.40105,0.1381c2.90611,-0.70303 5.23712,-0.95411 8.16159,-0.89762c1.90886,0.03766 2.93059,0.15065 4.54577,0.48333c5.32889,1.12359 9.83795,4.09264 13.2274,8.7251c0.2692,0.36407 0.49557,0.67164 0.50169,0.6842c0.01835,0.02511 0.09789,-0.04394 1.43776,-1.25541c0.52004,-0.4645 2.21476,-1.94589 3.77489,-3.2829c1.554,-1.33701 3.30991,-2.86861 3.89725,-3.40216l1.07067,-0.97294l-0.08566,-0.16948c-0.15295,-0.3013 -1.40717,-2.22835 -1.93333,-2.96904c-1.22363,-1.71991 -2.25759,-2.95021 -3.78712,-4.5132c-2.45337,-2.51082 -4.8945,-4.30605 -7.86792,-5.78116c-2.78987,-1.38723 -5.55526,-2.19697 -8.90188,-2.60497c-0.96666,-0.11926 -4.66813,-0.17576 -5.68986,-0.08788l0,0z" id="svg_10"/>
      <path stroke="null" d="m156.61059,33.5508c-0.28143,0.10044 -0.67299,0.47705 -0.83207,0.79091c-0.2692,0.53355 -0.20802,1.24913 0.14684,1.7513c0.54451,0.7658 1.69472,0.89134 2.37995,0.25736c0.69747,-0.64654 0.7097,-1.89567 0.02447,-2.49199c-0.44662,-0.38918 -1.15633,-0.51472 -1.71919,-0.30757l0,0z" id="svg_11" fill="#449e62"/>
      <path stroke="null" d="m167.12766,37.98867c-0.23249,0.10671 -0.62405,0.26991 -0.86877,0.37662c-0.42215,0.17576 -0.43439,0.18831 -0.37321,0.33268c0.05506,0.12554 0.08566,0.1381 0.21414,0.08788c0.23861,-0.09416 0.41603,-0.06905 0.54451,0.07532c0.11013,0.12554 0.11624,0.29502 0.1346,3.69091c0.01224,1.95216 0,3.64697 -0.01835,3.76623c-0.05506,0.31385 -0.28143,0.50844 -0.58122,0.50844c-0.22025,0 -0.24472,0.01256 -0.24472,0.15693l0,0.15693l1.46835,0l1.46835,0l0,-0.15693c0,-0.14437 -0.02447,-0.15693 -0.2692,-0.15693c-0.40991,0 -0.59958,-0.19459 -0.65464,-0.66537c-0.02447,-0.20087 -0.04895,-2.17186 -0.04895,-4.3751l-0.00612,-3.99848l-0.16519,0.00628c-0.09789,0.00628 -0.36097,0.09416 -0.59958,0.19459z" id="svg_12"/>
      <path stroke="null" d="m179.34556,37.88196c-0.24472,0.11299 -0.4038,0.45823 -0.34873,0.75952c0.09177,0.50844 0.777,0.71558 1.13797,0.34524c0.14684,-0.15065 0.17743,-0.23853 0.17743,-0.47078c0,-0.53983 -0.48333,-0.85996 -0.96666,-0.63398z" id="svg_13"/>
      <path stroke="null" d="m122.89357,37.93218c-1.05232,0.35779 -1.60295,1.19264 -1.71308,2.5987l-0.04283,0.58377l-0.54451,0l-0.54451,0l0,0.25108l0,0.25108l0.55063,0l0.55063,0l0,2.29112c0,2.46688 -0.01835,2.63008 -0.31814,2.79956c-0.07342,0.04394 -0.27532,0.10044 -0.44662,0.11926c-0.25696,0.02511 -0.30591,0.05022 -0.32426,0.16948l-0.01835,0.14437l1.77426,0l1.78037,0l0,-0.15693c0,-0.15065 -0.01835,-0.15693 -0.36709,-0.15693c-0.22025,0 -0.45274,-0.04394 -0.55675,-0.10044c-0.34873,-0.18203 -0.36097,-0.29502 -0.36097,-2.81839l0,-2.29112l1.07067,0l1.07067,0l0,2.27229c0,1.46883 0.02447,2.36644 0.0673,2.52965c0.15295,0.57121 0.76476,0.92273 1.35211,0.78463c0.50781,-0.12554 1.02785,-0.64654 1.1808,-1.18009c0.06118,-0.22597 -0.22025,-0.18831 -0.39156,0.0565c-0.27532,0.3829 -0.67911,0.43311 -0.95443,0.11926c-0.11624,-0.13182 -0.12236,-0.23853 -0.14072,-2.36017l-0.01835,-2.22207l0.67299,0c0.42215,0 0.67911,-0.02511 0.69135,-0.06905c0.03059,-0.10044 0.34262,0.17576 0.45886,0.40173c0.05506,0.11299 0.53228,1.35584 1.05844,2.77445c0.88713,2.37272 0.97278,2.57359 1.10738,2.59242c0.14684,0.01883 0.2019,-0.08788 0.97278,-1.8329c0.45274,-1.02316 0.8443,-1.8329 0.86266,-1.80779c0.02447,0.02511 0.35485,0.85368 0.73418,1.84545c0.65464,1.71991 0.69135,1.80779 0.8443,1.80779c0.15295,0 0.19578,-0.10671 1.16856,-2.6803c1.07067,-2.8435 1.19915,-3.10086 1.59683,-3.18874c0.1346,-0.03138 0.17743,-0.07532 0.17743,-0.19459l0,-0.15065l-0.94831,0l-0.94831,0l0,0.15065c0,0.12554 0.03671,0.15065 0.24472,0.18831c0.28755,0.04394 0.36709,0.16948 0.29979,0.47078c-0.03671,0.18203 -0.68523,1.97727 -1.21751,3.3645c-0.0673,0.17576 -0.09789,0.10671 -0.74029,-1.55671c-0.36709,-0.95411 -0.66688,-1.80779 -0.66688,-1.89567c0,-0.19459 0.30591,-0.40801 0.59958,-0.40801c0.16519,0 0.19578,-0.01883 0.19578,-0.15693l0,-0.15693l-1.43776,0l-1.43776,0l0,0.15065c0,0.12554 0.03671,0.15065 0.25696,0.18203c0.35485,0.05022 0.56287,0.28874 0.80147,0.92273l0.2019,0.53355l-0.34873,0.78463c-0.18966,0.43311 -0.45886,1.03571 -0.6057,1.34957l-0.25696,0.56493l-0.63628,-1.74502c-0.34873,-0.96039 -0.64852,-1.83917 -0.67299,-1.95844c-0.04283,-0.25108 0.12848,-0.47078 0.37321,-0.47078c0.12236,0 0.15295,-0.03138 0.15295,-0.15693l0,-0.15693l-1.77426,0l-1.77426,0l0,-0.97294c0,-0.96666 0,-0.97294 -0.1346,-0.96666c-0.11624,0 -0.18966,0.10671 -0.40991,0.57749c-0.20802,0.44567 -0.36709,0.67164 -0.69135,1.0106c-0.28143,0.28874 -0.44662,0.41429 -0.51392,0.38918c-0.05506,-0.01883 -0.40991,-0.03766 -0.79536,-0.03766l-0.69747,0l0,-0.91645c0,-0.50217 0.03059,-1.03571 0.0673,-1.18636c0.08566,-0.34524 0.3365,-0.59632 0.64852,-0.64026c0.34262,-0.04394 0.56287,0.09416 0.96055,0.6026c0.4038,0.51472 0.64852,0.64026 0.94831,0.47705c0.24472,-0.12554 0.33038,-0.30757 0.29367,-0.61515c-0.04283,-0.29502 -0.23861,-0.52727 -0.67299,-0.77208c-0.2692,-0.15065 -0.39768,-0.18203 -0.86877,-0.19459c-0.3365,-0.01256 -0.64852,0.01256 -0.79536,0.06277l-0.00001,0z" id="svg_14"/>
      <path stroke="null" d="m109.36026,38.13305c-0.47721,0.13182 -0.79536,0.32013 -1.13185,0.66537c-0.75253,0.77208 -0.86877,1.93961 -0.28755,2.8435c0.25696,0.38918 0.70358,0.75324 1.61519,1.30563c0.4038,0.24481 0.96666,0.58377 1.25422,0.75952c0.73418,0.43939 1.00337,0.6842 1.18692,1.06082c0.3365,0.69675 0.07342,1.43744 -0.6424,1.81407c-0.50781,0.26363 -1.43164,0.22597 -2.04346,-0.08788c-0.74641,-0.3829 -1.10126,-0.929 -1.33987,-2.07143c-0.03059,-0.13182 -0.07342,-0.16948 -0.18966,-0.16948l-0.15295,0l0,1.53788l0,1.53788l0.14684,0c0.11013,0 0.16519,-0.05022 0.20802,-0.18203c0.11624,-0.33268 0.23249,-0.34524 1.06456,-0.08788c1.67025,0.50844 2.85105,0.30757 3.68923,-0.61515c0.43439,-0.48333 0.59958,-0.92273 0.59958,-1.60065c0,-0.41429 -0.03059,-0.57121 -0.15907,-0.86623c-0.32426,-0.72814 -0.69135,-1.04199 -2.27594,-1.95216c-1.14409,-0.65909 -1.62131,-0.9855 -1.92109,-1.31818c-0.28143,-0.31385 -0.3365,-0.48333 -0.29979,-0.9039c0.07342,-0.77208 0.94831,-1.31818 1.81708,-1.14242c1.03396,0.21342 1.70696,0.94784 1.91498,2.09026c0.0673,0.37662 0.09177,0.42684 0.21414,0.42684l0.14072,0l0,-1.56926l0,-1.56926l-0.14684,0c-0.11624,0 -0.15907,0.04394 -0.18966,0.19459c-0.0673,0.30757 -0.2692,0.35779 -0.72194,0.18203c-0.97278,-0.37662 -1.69472,-0.45823 -2.34936,-0.28247l0,0z" id="svg_15"/>
      <path stroke="null" d="m155.22789,38.13305c-0.68523,0.20087 -1.24198,0.6842 -1.54789,1.34957c-0.16519,0.34524 -0.18966,0.47705 -0.18966,0.91017c0,0.7093 0.2019,1.15497 0.75865,1.68225c0.37321,0.35151 0.69135,0.55866 2.50232,1.65086c0.94831,0.57121 1.29093,1.00433 1.29093,1.63203c-0.00612,1.38095 -1.88438,1.89567 -3.23037,0.87879c-0.29367,-0.22597 -0.40991,-0.36407 -0.58122,-0.71558c-0.11624,-0.23853 -0.24472,-0.62143 -0.28755,-0.85368c-0.07342,-0.37035 -0.09789,-0.41429 -0.22637,-0.41429l-0.14072,0l0,1.53788l0,1.53788l0.15295,0c0.10401,0 0.15295,-0.03138 0.15295,-0.11299c0,-0.19459 0.15295,-0.34524 0.34262,-0.33896c0.09789,0 0.51392,0.10671 0.92995,0.22597c1.48059,0.43939 2.61244,0.25736 3.4078,-0.55866c0.17743,-0.18203 0.39768,-0.49589 0.49557,-0.70303c0.15295,-0.32013 0.17131,-0.43311 0.17743,-0.96039c0,-0.51472 -0.02447,-0.64654 -0.15907,-0.94784c-0.31202,-0.67792 -0.67299,-0.9855 -2.16582,-1.84545c-1.57236,-0.9039 -2.0251,-1.24913 -2.24536,-1.68225c-0.26308,-0.53355 -0.01835,-1.19891 0.5751,-1.54415c0.40991,-0.24481 0.79536,-0.29502 1.26645,-0.16948c1.02173,0.26991 1.56624,0.87251 1.81097,2.01493c0.09177,0.42684 0.11624,0.47078 0.25084,0.47078l0.14684,0l0,-1.56926l0,-1.56926l-0.15295,0c-0.11624,0 -0.17131,0.05022 -0.23861,0.2197c-0.12848,0.31385 -0.28143,0.32641 -0.98502,0.06277c-0.74029,-0.27619 -1.54177,-0.35151 -2.11075,-0.18831l0,0z" id="svg_16"/>
      <path stroke="null" d="m176.28038,39.68347c-0.27532,0.59632 -0.76476,1.18636 -1.22975,1.49394c-0.18966,0.12554 -0.30591,0.24481 -0.30591,0.32013c0,0.10671 0.04895,0.11926 0.45274,0.11926l0.45886,0l0.01835,2.39783c0.01835,2.64891 0.01224,2.61125 0.41603,2.96277c0.6424,0.55238 1.62131,0.21342 2.08017,-0.72186c0.15907,-0.30757 0.15295,-0.37035 -0.01835,-0.37035c-0.08566,0 -0.17743,0.06277 -0.24472,0.18203c-0.1346,0.23225 -0.53228,0.40173 -0.74029,0.32013c-0.08566,-0.03138 -0.2019,-0.13182 -0.26308,-0.23225c-0.09789,-0.15693 -0.11013,-0.37662 -0.12848,-2.35389l-0.01835,-2.18441l0.67911,0l0.67299,0l0,-0.25108l0,-0.25108l-0.67299,0l-0.67299,0l0,-0.97294c0,-0.929 -0.00612,-0.97294 -0.12236,-0.97294c-0.09177,0 -0.17743,0.12554 -0.36097,0.51472l0,0z" id="svg_17"/>
      <path stroke="null" d="m116.13915,41.02676c-0.73418,0.20087 -1.30316,0.64654 -1.68249,1.31191c-0.49557,0.86623 -0.63017,2.08398 -0.33038,2.95649c0.36709,1.0671 1.07679,1.76385 1.99451,1.96471c0.98502,0.21342 1.94556,-0.08788 2.60021,-0.80974c0.74641,-0.82857 1.08291,-2.19697 0.80759,-3.2829c-0.4038,-1.59437 -1.91498,-2.54848 -3.38945,-2.14047l0,0zm1.00337,0.52099c0.48333,0.22597 0.88713,0.83485 1.1135,1.70108c0.14072,0.5461 0.14072,2.02749 0,2.46688c-0.36709,1.1487 -1.44388,1.44372 -2.20865,0.60887c-0.34262,-0.37662 -0.54451,-0.79718 -0.71582,-1.50649c-0.11013,-0.43311 -0.12848,-0.65909 -0.10401,-1.31191c0.01835,-0.70303 0.04283,-0.83485 0.19578,-1.16753c0.09177,-0.20714 0.22637,-0.44567 0.29979,-0.52727c0.32426,-0.36407 0.96055,-0.48333 1.41941,-0.26363l0,0z" id="svg_18"/>
      <path stroke="null" d="m137.62603,40.9891c-0.88101,0.18831 -1.48059,0.79718 -1.48671,1.49394c0,0.52099 0.55063,0.83485 0.92384,0.52099c0.12236,-0.10044 0.14684,-0.19459 0.18354,-0.6277c0.03059,-0.4645 0.05506,-0.53355 0.22025,-0.70303c0.34262,-0.35779 1.00949,-0.35151 1.35823,0.01256c0.20802,0.21342 0.33038,0.6842 0.29979,1.15497c-0.01835,0.30757 -0.01835,0.30757 -0.32426,0.42684c-2.30042,0.86623 -3.04071,1.57554 -2.85717,2.73051c0.07953,0.48333 0.28143,0.82229 0.63628,1.06082c0.22637,0.15693 0.31202,0.17576 0.74641,0.17576c0.56287,0 0.78312,-0.08788 1.39494,-0.57121c0.19578,-0.15693 0.38544,-0.26363 0.41603,-0.24481c0.03671,0.01883 0.06118,0.12554 0.06118,0.23225c0,0.28874 0.34262,0.61515 0.64852,0.61515c0.36097,-0.00628 0.72806,-0.20714 1.09514,-0.60887c0.2692,-0.28247 0.3365,-0.40173 0.3365,-0.56493c0,-0.11299 -0.01835,-0.20714 -0.03671,-0.20714c-0.01835,0 -0.15907,0.11299 -0.31202,0.25108c-0.61793,0.55866 -0.67911,0.34524 -0.68523,-2.44805c-0.00612,-0.87251 -0.03671,-1.64458 -0.07342,-1.7764c-0.09177,-0.33896 -0.44662,-0.6842 -0.85042,-0.82229c-0.38544,-0.13182 -1.30928,-0.18831 -1.69472,-0.10044l0,0zm1.51118,3.72857l0,1.09848l-0.19578,0.15693c-0.65464,0.50844 -1.17468,0.59004 -1.52953,0.24481c-0.55063,-0.52727 -0.45274,-1.32446 0.22025,-1.84545c0.24472,-0.18831 1.28481,-0.71558 1.46223,-0.74069c0.02447,-0.00628 0.04283,0.48961 0.04283,1.08593l0,0z" id="svg_19"/>
      <path stroke="null" d="m141.72518,41.2904c-0.777,0.32013 -0.87489,0.37662 -0.87489,0.50844c0,0.1381 0.01224,0.14437 0.27532,0.10671c0.66076,-0.10671 0.67299,-0.06277 0.67299,2.48571l0,2.05887l-0.15907,0.1632c-0.11624,0.11299 -0.25084,0.17576 -0.44662,0.19459c-0.24472,0.03138 -0.28143,0.0565 -0.28143,0.18203l0,0.15065l1.49894,0l1.49894,0l0,-0.15065c0,-0.12554 -0.03671,-0.15065 -0.27532,-0.18203c-0.15295,-0.01256 -0.3365,-0.0816 -0.40991,-0.14437c-0.2692,-0.25108 -0.29367,-0.42684 -0.29367,-2.17813l0,-1.65714l0.23861,-0.3829c0.1346,-0.20714 0.31202,-0.42684 0.39768,-0.48333c0.16519,-0.11299 0.21414,-0.10044 0.63017,0.19459c0.29367,0.20714 0.6424,0.20714 0.8443,-0.00628c0.12236,-0.11926 0.15295,-0.21342 0.15295,-0.45195c0,-0.33896 -0.11013,-0.51472 -0.40991,-0.67164c-0.52004,-0.26363 -1.14409,0.03766 -1.64578,0.80346l-0.20802,0.32013l0,-0.61515l0,-0.60887l-0.16519,0.00628c-0.09789,0 -0.56287,0.1632 -1.04008,0.35779l0,0.00001z" id="svg_20"/>
      <path stroke="null" d="m147.12137,41.00793c-0.91772,0.24481 -1.63966,1.00433 -1.90886,2.02121c-0.04283,0.16948 -0.09789,0.55238 -0.11624,0.8474c-0.11013,1.49394 0.4711,2.69913 1.554,3.22012c0.37321,0.18203 0.46498,0.20087 0.99114,0.20087c0.50781,0 0.63017,-0.02511 0.93607,-0.16948c0.6424,-0.30757 1.27257,-1.1487 1.44388,-1.92705c0.04895,-0.23853 0.04283,-0.29502 -0.04283,-0.36407c-0.05506,-0.04394 -0.11624,-0.07532 -0.1346,-0.0816c-0.01835,0 -0.09789,0.15693 -0.17743,0.34524c-0.45886,1.09848 -1.63966,1.42489 -2.60021,0.71558c-0.55675,-0.40801 -0.91772,-1.11103 -0.99114,-1.93961l-0.04283,-0.43939l2.03122,0c1.57848,0 2.0251,-0.01883 2.0251,-0.0816c0,-0.03766 -0.03059,-0.25736 -0.0673,-0.48333c-0.17743,-1.1487 -0.96666,-1.87056 -2.09852,-1.92077c-0.28143,-0.01256 -0.63017,0.01256 -0.80147,0.0565l0,0zm0.89937,0.6277c0.30591,0.16948 0.52004,0.50217 0.59958,0.91645c0.03059,0.18831 0.06118,0.36407 0.06118,0.38918c0,0.03138 -0.59346,0.0565 -1.3154,0.0565c-1.1135,0 -1.3154,-0.01256 -1.3154,-0.09416c0,-0.23853 0.2692,-0.79718 0.50169,-1.02944c0.42215,-0.43939 0.96055,-0.52727 1.46835,-0.23853l0,0z" id="svg_21"/>
      <path stroke="null" d="m162.02514,41.02676c-1.00949,0.27619 -1.76814,1.14242 -2.06181,2.34134c-0.1346,0.55238 -0.09177,1.46883 0.08566,1.98355c0.18354,0.52099 0.63628,1.18009 0.99726,1.45c0.82595,0.62143 1.95168,0.69048 2.9367,0.17576c0.89937,-0.4645 1.53565,-1.68852 1.54177,-2.97532c0.00612,-2.02749 -1.6886,-3.47748 -3.49957,-2.97532l0,0zm1.09514,0.57749c0.41603,0.2197 0.72806,0.67792 0.96055,1.3935c0.15907,0.48961 0.17131,0.60887 0.17131,1.50649c0,1.16753 -0.08566,1.50021 -0.48333,1.9145c-0.32426,0.33268 -0.68523,0.43939 -1.13185,0.33896c-0.80147,-0.17576 -1.42552,-1.31818 -1.5173,-2.79329c-0.04283,-0.6842 0.04895,-1.31818 0.26308,-1.77013c0.3365,-0.7093 1.06456,-0.95411 1.73755,-0.59004l0,0z" id="svg_22"/>
      <path stroke="null" d="m179.11919,41.24646c-1.07067,0.44567 -1.00337,0.40801 -0.96666,0.55866c0.03059,0.11926 0.06118,0.13182 0.34873,0.09416c0.27532,-0.03766 0.33038,-0.02511 0.43439,0.09416c0.11624,0.13182 0.12236,0.24481 0.14072,2.12164c0.01224,1.09221 0,2.08398 -0.01835,2.20324c-0.05506,0.31385 -0.28143,0.50844 -0.58122,0.50844c-0.22025,0 -0.24472,0.01256 -0.24472,0.15693l0,0.15693l1.43776,0l1.43776,0l0,-0.15693c0,-0.1381 -0.02447,-0.15693 -0.23861,-0.15693c-0.16519,0 -0.29979,-0.04394 -0.40991,-0.15065c-0.23861,-0.20714 -0.26308,-0.53983 -0.26308,-3.38333l-0.00612,-2.36644l-0.16519,0.00628c-0.09789,0 -0.50169,0.14437 -0.90548,0.31385z" id="svg_23"/>
      <path stroke="null" d="m183.49977,41.02676c-0.73418,0.20087 -1.30316,0.64654 -1.68249,1.31191c-0.49557,0.86623 -0.63017,2.08398 -0.33038,2.95649c0.53228,1.55043 1.85991,2.32878 3.32215,1.93961c0.77089,-0.20714 1.41329,-0.75952 1.78649,-1.54415c0.67299,-1.39978 0.45886,-3.00671 -0.53839,-3.97965c-0.69135,-0.67792 -1.6519,-0.93528 -2.55738,-0.6842l0,0zm1.00337,0.52099c0.48333,0.22597 0.88101,0.83485 1.1135,1.70108c0.14072,0.53983 0.14684,2.02121 0,2.46688c-0.36097,1.14242 -1.44388,1.44372 -2.20253,0.62143c-0.33038,-0.36407 -0.4711,-0.63398 -0.66076,-1.26797c-0.12848,-0.40801 -0.14684,-0.59632 -0.14684,-1.41234c0,-0.89762 0.00612,-0.96039 0.17131,-1.31818c0.09789,-0.20714 0.23249,-0.44567 0.30591,-0.52727c0.32426,-0.36407 0.96055,-0.48333 1.41941,-0.26363l0,0z" id="svg_24"/>
      <path stroke="null" d="m187.89871,41.27784c-0.45274,0.18831 -0.85042,0.37035 -0.87489,0.39545c-0.02447,0.02511 -0.03059,0.09416 -0.00612,0.15693c0.03059,0.0816 0.09177,0.09416 0.32426,0.06277c0.36097,-0.04394 0.48945,0.05022 0.56287,0.42056c0.0673,0.37035 0.0673,3.72857 -0.00612,4.03614c-0.07342,0.32641 -0.18966,0.43311 -0.53228,0.47705c-0.24472,0.02511 -0.29979,0.0565 -0.31202,0.16948l-0.01835,0.14437l1.49894,0l1.50506,0l0,-0.15693c0,-0.14437 -0.02447,-0.15693 -0.27532,-0.15693c-0.3365,0 -0.55063,-0.13182 -0.63628,-0.38918c-0.04283,-0.11926 -0.0673,-0.87251 -0.0673,-1.9961l0,-1.80151l0.28143,-0.26991c0.83207,-0.78463 1.76814,-0.73442 1.98227,0.11299c0.09177,0.3829 0.15295,2.42294 0.09177,3.30173c-0.04283,0.64026 -0.05506,0.70303 -0.21414,0.86623c-0.14072,0.14437 -0.22637,0.17576 -0.45274,0.17576c-0.25696,0 -0.28143,0.01256 -0.28143,0.15693l0,0.15693l1.46835,0l1.46835,0l0,-0.15693c0,-0.1381 -0.02447,-0.15693 -0.23861,-0.15693c-0.17131,0 -0.29979,-0.04394 -0.41603,-0.15065l-0.17131,-0.15065l-0.03671,-2.09653c-0.02447,-1.1487 -0.0673,-2.17813 -0.09789,-2.27857c-0.20802,-0.64654 -0.5751,-1.04199 -1.07067,-1.16753c-0.62405,-0.15065 -1.30928,0.11926 -1.95168,0.77208l-0.36097,0.36407l0,-0.59632l0,-0.59632l-0.16519,0c-0.09789,0.00628 -0.54451,0.1632 -0.99726,0.35151l-0.00001,0z" id="svg_25"/>
      <path stroke="null" d="m194.70819,41.0456c-0.41603,0.14437 -0.71582,0.3829 -0.91772,0.74069c-0.1346,0.23225 -0.17131,0.38918 -0.18966,0.80974c-0.04895,0.91645 0.2019,1.2303 1.56624,1.97099c1.10738,0.59004 1.41941,0.91645 1.41941,1.45628c0,0.44567 -0.46498,0.85996 -0.96055,0.86623c-0.32426,0 -0.8443,-0.23853 -1.11962,-0.50844c-0.26308,-0.26363 -0.52004,-0.74697 -0.58734,-1.11103c-0.03059,-0.15693 -0.0673,-0.20087 -0.18354,-0.20087l-0.14684,0l0,1.09848c0,0.9855 0.01224,1.09848 0.10401,1.09848c0.05506,0 0.14684,-0.04394 0.20802,-0.10044c0.10401,-0.09416 0.16519,-0.08788 0.79536,0.03766c1.12574,0.23225 1.76202,0.11299 2.35548,-0.45195c0.37933,-0.35151 0.53228,-0.71558 0.53228,-1.24285c0,-0.85996 -0.36097,-1.27424 -1.71919,-1.97099c-0.99726,-0.51472 -1.27257,-0.71558 -1.39494,-1.02316c-0.1346,-0.32641 -0.10401,-0.55238 0.09789,-0.79091c0.34262,-0.40173 1.01561,-0.45195 1.54177,-0.11299c0.28755,0.18831 0.58734,0.69048 0.71582,1.18009c0.05506,0.20087 0.10401,0.26991 0.18966,0.26991c0.11624,0 0.12236,-0.05022 0.12236,-1.0671c0,-1.00433 -0.00612,-1.0671 -0.11624,-1.0671c-0.06118,0 -0.15295,0.06277 -0.2019,0.1381l-0.09177,0.1381l-0.58734,-0.1381c-0.70358,-0.1632 -1.00949,-0.16948 -1.43164,-0.01883l0,0z" id="svg_26"/>
      <path stroke="null" d="m168.56542,41.27157c0,0.1381 0.02447,0.15693 0.23861,0.15693c0.33038,0 0.53228,0.08788 0.66076,0.29502c0.09789,0.15065 0.11624,0.38918 0.14072,2.27857c0.03059,2.04004 0.03671,2.11537 0.17743,2.4355c0.2692,0.61515 0.83207,0.94156 1.49894,0.87251c0.44051,-0.04394 0.83818,-0.26363 1.33987,-0.73442l0.40991,-0.38918l0,0.57121l0,0.57121l0.17131,0c0.09177,0 0.55675,-0.1632 1.04008,-0.35779c0.74029,-0.30757 0.86877,-0.3829 0.85654,-0.48961c-0.01835,-0.10671 -0.0673,-0.12554 -0.38544,-0.12554c-0.55675,0 -0.53839,0.08788 -0.56899,-2.81212l-0.02447,-2.42922l-1.00337,0l-1.00337,0l0,0.15693c0,0.13182 0.03059,0.15693 0.18354,0.15693c0.28755,0 0.6057,0.1632 0.67299,0.34524c0.03671,0.09416 0.06118,0.94156 0.06118,2.02749l-0.00612,1.86428l-0.28143,0.25108c-0.61793,0.53983 -1.19915,0.67792 -1.61519,0.38918c-0.39156,-0.26991 -0.39156,-0.26991 -0.40991,-2.85605l-0.01835,-2.33506l-1.06456,0l-1.07067,0l0,0.15693l0,0z" id="svg_27"/>
      <path stroke="null" d="m2.05145,34.03495c0.0681,0.19092 0.45248,1.46936 0.85353,2.83399c1.62096,5.48073 2.35868,7.94152 2.53302,8.48838l0.1851,0.57027l2.4605,-0.50073c2.85539,-0.58749 4.22262,-0.96812 6.51087,-1.81135c8.26698,-3.05184 14.17993,-8.50433 17.14771,-15.834c1.6513,-4.07326 2.39344,-8.36466 2.339,-13.51785c-0.00511,-0.5749 -0.01037,-1.05378 -0.01275,-1.06609c-0.01428,-0.07388 -2.70264,-0.42909 -6.78506,-0.89736c-1.87506,-0.21355 -4.16877,-0.49549 -5.09965,-0.63242c-0.92369,-0.13199 -1.69026,-0.22556 -1.69988,-0.21081c-0.00962,0.01476 -0.11596,0.49715 -0.24282,1.06691c-0.53171,2.44397 -1.3676,5.2826 -2.11204,7.17472c-0.76492,1.94748 -1.47137,3.32632 -2.47803,4.86225c-1.99888,3.04971 -4.50262,5.13347 -7.9425,6.60144c-1.34834,0.57516 -2.70605,1.00505 -4.76337,1.49412l-1.17391,0.28369l0.07861,0.37436c0.04647,0.20812 0.13357,0.52956 0.20166,0.72048l0.00001,0z" fill="#DEDEDD" id="svg_54"/>
    </g>
  </g>
</svg>