<svg xmlns="http://www.w3.org/2000/svg" width="60" height="60" viewBox="0 0 60 60">
  <g fill="none" fill-rule="evenodd">
    <path fill="#03a715" d="M0 21.085V60h60V19a77.082 77.082 0 0 1-32.54 7.164A76.81 76.81 0 0 1 0 21.084"></path>
    <path fill="#FFF" d="M53.48 35.912a15.25 15.25 0 0 0-5.43-.91c-2.89 0-6.32.85-6.32 4.33 0 3 3.69 3.54 6 3.82 1.74.27 4.09.27 4.09 2.63 0 2.57-2.65 3.12-4.71 3.12s-4.69-1.32-5-3.44c0-.15 0-.28-.15-.28s-.13.08-.23.47l-.73 2.53a15.94 15.94 0 0 0 6.23 1.25c3.08 0 6.94-1.12 6.94-4.86 0-1.34-.57-3.08-4.37-3.59-3.25-.45-5.69-.36-5.69-2.93 0-2.14 2.27-2.52 4-2.52 2.61 0 4 1.25 4.5 2.74.01.06.053.11.11.13a.6.6 0 0 0 .21-.45l.55-2.04zM35.16 42.22c0 3.16-1.32 6.68-5.18 6.68-3.86 0-5.18-3.52-5.18-6.68 0-3.16 1.32-6.68 5.18-6.68 3.86 0 5.18 3.52 5.18 6.68m2.84 0c0-4.37-3.86-7.22-8-7.22-4.14 0-8 2.84-8 7.22s3.86 7.21 8 7.21c4.14 0 8-2.84 8-7.21m-28-5.69h3.9c2 0 4.24.76 5.13 2.23a.36.36 0 0 0 .25.19.15.15 0 0 0 .11-.17 3 3 0 0 0-.19-.78l-.57-2h-12c-.32 0-.4 0-.4.13.1.095.225.16.36.19.85.21.93 1.12.93 2.5V46c0 1.93-.15 2.52-.93 3.14-.14.16-.59.29-.59.35a.79.79 0 0 0 .64.08h12.92l.93-3.06a1.06 1.06 0 0 0 0-.17.06.06 0 0 0-.06-.06 2.88 2.88 0 0 0-.57.45 9 9 0 0 1-5.5 2.27H12c-1.44 0-2-.34-2-1.89v-4.43h3.29c1.49 0 3.23.08 3.84 1.66.01.12.073.23.17.3.06 0 .08-.08.08-.44v-3.5c0-.21 0-.32-.08-.32a.23.23 0 0 0-.17.19c-.3.87-1.65 1.59-3.2 1.59H10v-5.63z"></path>
    <path fill="#2a2d33" d="M0 0v18.442A76.417 76.417 0 0 0 23.1 22 76.507 76.507 0 0 0 60 12.583V0H0z"></path>
  </g>
</svg>